<svg xmlns="http://www.w3.org/2000/svg" width="453.543" height="453.543"><path fill="none" d="M453.23 427.46l.3-.2-41.5 26.28z"/><g fill="#F6B2AA"><path d="M453.54 362.63V331.2h-50.5v63.7zM352.55 453.54h50.5V394.9l-50.5 32.16zM251.28 331.2h-50.5v63.7l50.72-31.84V331.2h-.22zM310.56 331.2H302v63.7l50.55-31.84V331.2zM251.5 453.54H302V394.9l-50.5 32.16zM150.3 453.54h50.48V394.9l-50.5 32.16zM0 331.2v63.1l49.23-31.25v-31.84zM108.3 331.2h-8.57v63.7l50.56-31.84V331.2zM49.23 453.54h50.5V394.9l-50.5 32.16zM403.05 208.85V150.2l-50.5 32.17v26.5h50.5zM453.54 240.3v-31.42h-50.5v63.7zM352.55 304.73v26.48h50.5v-58.63zM302 208.85V150.2l-50.5 32.17v26.5H302zM200.78 208.88v63.7l50.72-31.86v-31.84zM352.5 208.88H302v63.7l50.55-31.85v-31.85h-.06zM302 303.46v-30.9l-50.5 32.17v26.48H302zM200.78 208.85V150.2l-50.5 32.17v26.5h50.5zM200.78 303.47v-30.9l-50.5 32.16v26.48h50.5zM99.73 208.85V150.2l-50.5 32.17v26.5h50.5zM0 271.97l49.23-31.25v-31.84H0zM150.3 240.72v-31.84H99.7v63.7zM99.73 303.46v-30.9l-50.5 32.17v26.48h50.5zM403.05 86.52V27.88l-50.5 32.15v26.5h50.5zM453.54 117.94V86.52h-50.5v63.7zM302 86.52V27.87l-50.5 32.16v26.5H302zM303.32 149.36l49.17-31.42v.47l.05-.03V86.52H302v63.7zM200.78 86.52V27.88l-50.5 32.15v26.5h50.5zM202.27 149.26l49.23-30.9V86.52h-50.72v63.7zM0 149.6l49.23-31.23V86.5H0zM150.3 118.37V86.52H99.7v63.7zM403.05 0v27.88L446.65 0zM345.6 0H302v27.87zM244.4 0h-43.62v27.88zM0 0v27.27L42.98 0zM143.34 0h-43.6v27.87zM99.73 86.5V27.88l-50.5 32.16v26.5h50.5z"/></g><g fill="#063850"><path d="M352.5 427.26l-41.54 26.28h-.4 42v-26.48l-.07.04zM412.02 453.54h41.52v-26.28zM412.02 331.2h41.52v-26.27zM403.05 331.2h-50.5v31.86zM453.54 362.63l-50.5 32.27h50.5zM403.05 394.9h-50.5v32.16zM209.75 453.54h41.75v-26.48zM302 331.2h-50.5v31.86zM251.28 363.2l-50.5 31.7h50.72v-31.84zM302 394.9h50.55v-31.84zM251.5 427.06L302 394.9h-50.5zM108.7 453.54h-.4 42v-26.48zM200.78 331.2h-50.5v31.86zM99.73 394.9h50.56v-31.84l-.08.04zM150.3 427.06l50.48-32.16h-50.5zM49.23 453.54v-26.48l-42 26.48zM49.23 331.2v31.86l50.5-31.85zM0 394.3v.6h49.23v-31.84zM49.23 427.06l50.5-32.16h-50.5zM352.5 304.93l-41.54 26.28h-.4 42v-26.47l-.07.04zM453.52 208.85h.02v-26.28l-41.52 26.28h-8.93l-.05.03h50.47zM403.05 208.88h-50.5v31.84zM453.54 240.3l-50.5 32.27h50.5zM352.55 304.73l50.5-32.16h-50.5zM209.75 331.2h41.75v-26.47zM302 208.88h-50.5v31.84zM302 272.57h50.55v-31.84zM251.5 304.73l50.5-32.16h-50.5zM150.22 304.93L108.7 331.2h-.4 42v-26.47l-.08.04zM150.3 208.88v31.84l50.48-31.84zM99.73 272.57h50.56v-31.84l-.08.04zM200.78 272.57h50.72v-31.85zM150.3 303.47v1.26l50.48-32.16h-50.5zM7.24 331.2h42v-26.47zM49.23 208.88v31.84l50.5-31.84zM0 271.97v.6h49.23v-31.85zM99.73 272.57h-50.5v32.16zM352.5 182.57l-41.54 26.28h-8.92l-.05.03h50.55v-26.5l-.06.03zM453.52 86.52h.02v-26.3l-41.52 26.3h-8.96 50.46zM403.05 86.52h-50.5v31.85zM453.54 117.94l-50.5 32.27h50.5zM352.55 182.37l50.5-32.16h-50.5zM209.75 208.88h41.75v-26.5zM251.5 118.36L302 86.52h-50.5zM352.5 117.94L302 150.2h50.55v-31.83l-.06.04zM251.5 182.37L302 150.2h-50.5zM150.3 182.37l-.08.04v.17l-41.53 26.28h-8.93l-.04.03h50.56zM251.26 86.52h.24v-26.5l-42 26.5h41.76-50.49zM150.3 86.52v31.85l50.48-31.85zM200.78 150.2h50.72v-31.83zM200.78 150.2h-50.5v32.17zM49.23 182.37l-42 26.48H0v.03h49.23zM49.23 86.52v31.84l50.5-31.84zM0 149.6v.6h49.23v-31.83zM150.22 118.4l-50.5 31.8h50.57v-31.83zM99.73 150.2h-50.5v32.17zM352.55 60.03l-.06.04v.16l-41.54 26.3H302h50.55zM352.55 60.03l50.5-32.16h-50.5zM49.23 60.03l-42 26.5H0h49.23zM150.3 60.03l-42 26.5h-8.57 50.56zM453.54 0h-6.88l-43.6 27.88h50.48zM352.5 27.87h.05V0h-6.94L302 27.87zM251.5 60.03L302 27.87h-50.5zM251.28 27.88h.22V0h-7.1l-43.62 27.88zM150.3 60.03l50.48-32.16h-50.5zM42.98 0L0 27.27v.6h49.23V0zM150.22 27.87h.07V0h-6.96l-43.6 27.87zM99.73 27.87h-50.5v32.16z"/></g><g fill="#91B2C0"><path d="M352.55 394.9h50.5v-63.7l-50.5 31.86zM412.02 453.54l41.52-26.28V394.9h-50.5v58.64zM251.5 363.06v31.84H302v-63.7zM251.28 394.9h-50.5v58.64h8.97l41.75-26.48V394.9h-.22zM352.5 394.9H302v58.64h8.96l41.53-26.28v-.16l.05-.04V394.9h-.06zM150.3 363.06v31.84h50.48v-63.7zM49.23 363.06v31.84h50.5v-63.7zM0 453.54h7.24l42-26.48V394.9H0zM150.22 394.9h-50.5v58.64h8.97l41.6-26.48V394.9h-.08zM352.55 272.57h50.5v-63.7l-50.5 31.85zM403.05 331.2h8.97l41.52-26.27v-32.36h-50.5zM251.5 272.57H302v-63.7l-50.5 31.85zM251.28 272.57h-50.5v58.64h8.97l41.75-26.47v-32.16h-.22zM302 331.2h8.96l41.53-26.27v-.16l.05-.04v-32.16H302zM150.3 240.72v31.85h50.48v-63.7zM101.05 331.2H108.7l41.52-26.27v-.16l.07-.04v-32.16H99.7v58.64h1.33zM49.23 240.72v31.85h50.5v-63.7zM0 303.46v27.75h7.24l42-26.47v-32.16H0zM352.55 118.37v31.84h50.5V86.53zM403.05 208.85v.03l.04-.03H412l41.52-26.28V150.2h-50.5zM302 86.52l-50.5 31.84v31.85H302zM352.5 150.2H302v58.68l.04-.03h8.92l41.53-26.28v-.16l.05-.03V150.2h-.06zM150.3 118.37v31.84h50.48V86.53zM209.75 208.88l41.75-26.5V150.2h-50.72v58.68zM49.23 118.36v31.85h50.5V86.53zM0 181.13v27.72h7.24l42-26.48V150.2H0zM101.05 208.85H108.7l41.52-26.28v-.16l.07-.03V150.2H99.7v58.68l.05-.03zM403.05 0h-50.5v27.88h50.5zM403.05 86.5v.02h8.97l41.52-26.3V27.9h-50.5zM302 0h-50.5v27.87H302zM302 86.5v.02h8.96l41.53-26.3v-.15l-.03.02v-1.3l.02-.02v1.3l.05-.05V27.87H302zM200.78 0h-50.5v27.88h50.5zM200.78 86.5v.02h8.97-.25l42-26.5V27.88h-50.72zM49.23 0v27.87h50.5V0zM0 58.78v27.74h7.24l42-26.5V27.88H0zM101.05 86.52h7.24l42-26.5V27.88H99.7v58.65h.02z"/></g></svg>